<svg xmlns="http://www.w3.org/2000/svg" xmlns:xlink="http://www.w3.org/1999/xlink" viewBox="0 0 3203.48 1298.85"><defs><style>.cls-1{mask:url(#mask);filter:url(#luminosity-noclip-13);}.cls-10,.cls-12,.cls-14,.cls-16,.cls-18,.cls-2,.cls-20,.cls-22,.cls-24,.cls-4,.cls-6,.cls-8{mix-blend-mode:multiply;}.cls-2{fill:url(#linear-gradient);}.cls-3{mask:url(#mask-2);filter:url(#luminosity-noclip-18);}.cls-4{fill:url(#linear-gradient-2);}.cls-5{mask:url(#mask-3);filter:url(#luminosity-noclip-19);}.cls-6{fill:url(#linear-gradient-3);}.cls-7{mask:url(#mask-4);filter:url(#luminosity-noclip-20);}.cls-8{fill:url(#linear-gradient-4);}.cls-9{mask:url(#mask-5);filter:url(#luminosity-noclip-21);}.cls-10{fill:url(#linear-gradient-5);}.cls-11{mask:url(#mask-6);filter:url(#luminosity-noclip-22);}.cls-12{fill:url(#linear-gradient-6);}.cls-13{mask:url(#mask-7);filter:url(#luminosity-noclip-14);}.cls-14{fill:url(#linear-gradient-7);}.cls-15{mask:url(#mask-8);filter:url(#luminosity-noclip-23);}.cls-16{fill:url(#linear-gradient-8);}.cls-17{mask:url(#mask-9);filter:url(#luminosity-noclip-24);}.cls-18{fill:url(#linear-gradient-9);}.cls-19{mask:url(#mask-10);filter:url(#luminosity-noclip-15);}.cls-20{fill:url(#linear-gradient-10);}.cls-21{mask:url(#mask-11);filter:url(#luminosity-noclip-16);}.cls-22{fill:url(#linear-gradient-11);}.cls-23{mask:url(#mask-12);filter:url(#luminosity-noclip-17);}.cls-24{fill:url(#linear-gradient-12);}.cls-25{mask:url(#mask-13);}.cls-26{fill:url(#linear-gradient-13);}.cls-27{mask:url(#mask-14);}.cls-28{fill:url(#linear-gradient-14);}.cls-29{mask:url(#mask-15);}.cls-30{fill:url(#linear-gradient-15);}.cls-31{mask:url(#mask-16);}.cls-32{fill:url(#linear-gradient-16);}.cls-33{mask:url(#mask-17);}.cls-34{fill:url(#linear-gradient-17);}.cls-35{mask:url(#mask-18);}.cls-36{fill:url(#linear-gradient-18);}.cls-37{mask:url(#mask-19);}.cls-38{fill:url(#linear-gradient-19);}.cls-39{mask:url(#mask-20);}.cls-40{fill:url(#linear-gradient-20);}.cls-41{mask:url(#mask-21);}.cls-42{fill:url(#linear-gradient-21);}.cls-43{mask:url(#mask-22);}.cls-44{fill:url(#linear-gradient-22);}.cls-45{mask:url(#mask-23);}.cls-46{fill:url(#linear-gradient-23);}.cls-47{mask:url(#mask-24);}.cls-48{fill:url(#linear-gradient-24);}.cls-49,.cls-50,.cls-52{fill:#fff;}.cls-50{font-size:349.16px;stroke:#fff;stroke-miterlimit:10;stroke-width:5px;letter-spacing:0.02em;}.cls-50,.cls-52{font-family:TrajanPro-Bold, Trajan Pro;font-weight:700;}.cls-51{letter-spacing:0.01em;}.cls-52{font-size:91px;letter-spacing:0.06em;}.cls-53{letter-spacing:0.04em;}.cls-54{letter-spacing:0.05em;}.cls-55{filter:url(#luminosity-noclip-12);}.cls-56{filter:url(#luminosity-noclip-11);}.cls-57{filter:url(#luminosity-noclip-10);}.cls-58{filter:url(#luminosity-noclip-9);}.cls-59{filter:url(#luminosity-noclip-8);}.cls-60{filter:url(#luminosity-noclip-7);}.cls-61{filter:url(#luminosity-noclip-6);}.cls-62{filter:url(#luminosity-noclip-5);}.cls-63{filter:url(#luminosity-noclip-4);}.cls-64{filter:url(#luminosity-noclip-3);}.cls-65{filter:url(#luminosity-noclip-2);}.cls-66{filter:url(#luminosity-noclip);}</style><filter id="luminosity-noclip" x="195.95" y="-8841.42" width="77.1" height="32766" filterUnits="userSpaceOnUse" color-interpolation-filters="sRGB"><feFlood flood-color="#fff" result="bg"/><feBlend in="SourceGraphic" in2="bg"/></filter><mask id="mask" x="195.95" y="-8841.42" width="77.1" height="32766" maskUnits="userSpaceOnUse"><g class="cls-66"/></mask><linearGradient id="linear-gradient" x1="195.95" y1="191.01" x2="273.05" y2="191.01" gradientUnits="userSpaceOnUse"><stop offset="1" stop-color="#fff"/><stop offset="1"/></linearGradient><filter id="luminosity-noclip-2" x="404" y="-8841.42" width="192.5" height="32766" filterUnits="userSpaceOnUse" color-interpolation-filters="sRGB"><feFlood flood-color="#fff" result="bg"/><feBlend in="SourceGraphic" in2="bg"/></filter><mask id="mask-2" x="404" y="-8841.42" width="192.5" height="32766" maskUnits="userSpaceOnUse"><g class="cls-65"/></mask><linearGradient id="linear-gradient-2" x1="404" y1="613.54" x2="596.5" y2="613.54" xlink:href="#linear-gradient"/><filter id="luminosity-noclip-3" x="436.55" y="-8841.42" width="131.39" height="32766" filterUnits="userSpaceOnUse" color-interpolation-filters="sRGB"><feFlood flood-color="#fff" result="bg"/><feBlend in="SourceGraphic" in2="bg"/></filter><mask id="mask-3" x="436.55" y="-8841.42" width="131.39" height="32766" maskUnits="userSpaceOnUse"><g class="cls-64"/></mask><linearGradient id="linear-gradient-3" x1="436.55" y1="681.67" x2="567.94" y2="681.67" xlink:href="#linear-gradient"/><filter id="luminosity-noclip-4" x="187.64" y="-8841.42" width="240.77" height="32766" filterUnits="userSpaceOnUse" color-interpolation-filters="sRGB"><feFlood flood-color="#fff" result="bg"/><feBlend in="SourceGraphic" in2="bg"/></filter><mask id="mask-4" x="187.64" y="-8841.42" width="240.77" height="32766" maskUnits="userSpaceOnUse"><g class="cls-63"/></mask><linearGradient id="linear-gradient-4" x1="187.64" y1="703.96" x2="428.41" y2="703.96" xlink:href="#linear-gradient"/><filter id="luminosity-noclip-5" x="144.81" y="-8841.42" width="411.24" height="32766" filterUnits="userSpaceOnUse" color-interpolation-filters="sRGB"><feFlood flood-color="#fff" result="bg"/><feBlend in="SourceGraphic" in2="bg"/></filter><mask id="mask-5" x="144.81" y="-8841.42" width="411.24" height="32766" maskUnits="userSpaceOnUse"><g class="cls-62"/></mask><linearGradient id="linear-gradient-5" x1="144.81" y1="828.87" x2="556.05" y2="828.87" xlink:href="#linear-gradient"/><filter id="luminosity-noclip-6" x="328.5" y="-8841.42" width="77.1" height="32766" filterUnits="userSpaceOnUse" color-interpolation-filters="sRGB"><feFlood flood-color="#fff" result="bg"/><feBlend in="SourceGraphic" in2="bg"/></filter><mask id="mask-6" x="328.5" y="-8841.42" width="77.1" height="32766" maskUnits="userSpaceOnUse"><g class="cls-61"/></mask><linearGradient id="linear-gradient-6" x1="328.5" y1="191.01" x2="405.6" y2="191.01" xlink:href="#linear-gradient"/><filter id="luminosity-noclip-7" x="273.13" y="-8841.42" width="62.84" height="32766" filterUnits="userSpaceOnUse" color-interpolation-filters="sRGB"><feFlood flood-color="#fff" result="bg"/><feBlend in="SourceGraphic" in2="bg"/></filter><mask id="mask-7" x="273.13" y="-8841.42" width="62.84" height="32766" maskUnits="userSpaceOnUse"><g class="cls-60"/></mask><linearGradient id="linear-gradient-7" x1="273.13" y1="392.68" x2="335.97" y2="392.68" xlink:href="#linear-gradient"/><filter id="luminosity-noclip-8" x="285.05" y="-8841.42" width="32.58" height="32766" filterUnits="userSpaceOnUse" color-interpolation-filters="sRGB"><feFlood flood-color="#fff" result="bg"/><feBlend in="SourceGraphic" in2="bg"/></filter><mask id="mask-8" x="285.05" y="-8841.42" width="32.58" height="32766" maskUnits="userSpaceOnUse"><g class="cls-59"/></mask><linearGradient id="linear-gradient-8" x1="285.05" y1="406.94" x2="317.62" y2="406.94" xlink:href="#linear-gradient"/><filter id="luminosity-noclip-9" x="0" y="-8841.42" width="978.75" height="32766" filterUnits="userSpaceOnUse" color-interpolation-filters="sRGB"><feFlood flood-color="#fff" result="bg"/><feBlend in="SourceGraphic" in2="bg"/></filter><mask id="mask-9" x="0" y="-8841.42" width="978.75" height="32766" maskUnits="userSpaceOnUse"><g class="cls-58"/></mask><linearGradient id="linear-gradient-9" x1="0" y1="649.42" x2="978.75" y2="649.42" xlink:href="#linear-gradient"/><filter id="luminosity-noclip-10" x="239.15" y="-8841.42" width="46.3" height="32766" filterUnits="userSpaceOnUse" color-interpolation-filters="sRGB"><feFlood flood-color="#fff" result="bg"/><feBlend in="SourceGraphic" in2="bg"/></filter><mask id="mask-10" x="239.15" y="-8841.42" width="46.3" height="32766" maskUnits="userSpaceOnUse"><g class="cls-57"/></mask><linearGradient id="linear-gradient-10" x1="239.15" y1="579.79" x2="285.45" y2="579.79" xlink:href="#linear-gradient"/><filter id="luminosity-noclip-11" x="329.04" y="-8841.42" width="53.71" height="32766" filterUnits="userSpaceOnUse" color-interpolation-filters="sRGB"><feFlood flood-color="#fff" result="bg"/><feBlend in="SourceGraphic" in2="bg"/></filter><mask id="mask-11" x="329.04" y="-8841.42" width="53.71" height="32766" maskUnits="userSpaceOnUse"><g class="cls-56"/></mask><linearGradient id="linear-gradient-11" x1="329.04" y1="577.54" x2="382.74" y2="577.54" xlink:href="#linear-gradient"/><filter id="luminosity-noclip-12" x="275.57" y="-8841.42" width="39.53" height="32766" filterUnits="userSpaceOnUse" color-interpolation-filters="sRGB"><feFlood flood-color="#fff" result="bg"/><feBlend in="SourceGraphic" in2="bg"/></filter><mask id="mask-12" x="275.57" y="-8841.42" width="39.53" height="32766" maskUnits="userSpaceOnUse"><g class="cls-55"/></mask><linearGradient id="linear-gradient-12" x1="275.57" y1="550.03" x2="315.1" y2="550.03" xlink:href="#linear-gradient"/><filter id="luminosity-noclip-13" x="195.95" y="166.81" width="77.1" height="48.39" filterUnits="userSpaceOnUse" color-interpolation-filters="sRGB"><feFlood flood-color="#fff" result="bg"/><feBlend in="SourceGraphic" in2="bg"/></filter><mask id="mask-13" x="195.95" y="166.81" width="77.1" height="48.39" maskUnits="userSpaceOnUse"><g class="cls-1"><path class="cls-2" d="M236.38,198.64a4.92,4.92,0,0,0,5-4v-.05a4.92,4.92,0,0,0-2.57-5.31l-4.28-2.2c13.37-16.08,38.55-18.79,38.55-18.79-34.09-8.91-55.4,24.41-55.4,24.41-17.82,5.42-21.7,22.47-21.7,22.47A55.83,55.83,0,0,1,236.38,198.64Z"/></g></mask><linearGradient id="linear-gradient-13" x1="195.95" y1="191.01" x2="273.05" y2="191.01" gradientUnits="userSpaceOnUse"><stop offset="1" stop-color="#e8ba65"/><stop offset="1" stop-color="#f8e889"/></linearGradient><filter id="luminosity-noclip-14" x="273.13" y="387.22" width="62.84" height="10.93" filterUnits="userSpaceOnUse" color-interpolation-filters="sRGB"><feFlood flood-color="#fff" result="bg"/><feBlend in="SourceGraphic" in2="bg"/></filter><mask id="mask-14" x="273.13" y="387.22" width="62.84" height="10.93" maskUnits="userSpaceOnUse"><g class="cls-13"><path class="cls-14" d="M274,398.08a102,102,0,0,1,27.54-.14,21.46,21.46,0,0,0,6,0,102,102,0,0,1,27.55.14.74.74,0,0,0,.6-1.31c-4-3.21-14.3-9.81-31.14-9.54-16.84-.27-27.15,6.33-31.14,9.54A.74.74,0,0,0,274,398.08Z"/></g></mask><linearGradient id="linear-gradient-14" x1="273.13" y1="392.68" x2="335.97" y2="392.68" xlink:href="#linear-gradient-13"/><filter id="luminosity-noclip-15" x="239.15" y="568.56" width="46.3" height="22.45" filterUnits="userSpaceOnUse" color-interpolation-filters="sRGB"><feFlood flood-color="#fff" result="bg"/><feBlend in="SourceGraphic" in2="bg"/></filter><mask id="mask-15" x="239.15" y="568.56" width="46.3" height="22.45" maskUnits="userSpaceOnUse"><g class="cls-19"><path class="cls-20" d="M247,582.46l.11.2c15.67,2.68,38.37,8.35,38.37,8.35-16.84-22.65-46.27-22.45-46.3-22.45l0,.05Z"/></g></mask><linearGradient id="linear-gradient-15" x1="239.15" y1="579.79" x2="285.45" y2="579.79" xlink:href="#linear-gradient-13"/><filter id="luminosity-noclip-16" x="329.04" y="566.97" width="53.71" height="21.14" filterUnits="userSpaceOnUse" color-interpolation-filters="sRGB"><feFlood flood-color="#fff" result="bg"/><feBlend in="SourceGraphic" in2="bg"/></filter><mask id="mask-16" x="329.04" y="566.97" width="53.71" height="21.14" maskUnits="userSpaceOnUse"><g class="cls-21"><path class="cls-22" d="M329,588.11s23.24-8.72,37.77-10.58c11.49-1.47,15-6.21,15.93-8.14,0-.31,0-.63,0-.94C360.1,560.36,329,588.11,329,588.11Z"/></g></mask><linearGradient id="linear-gradient-16" x1="329.04" y1="577.54" x2="382.74" y2="577.54" xlink:href="#linear-gradient-13"/><filter id="luminosity-noclip-17" x="275.57" y="511.4" width="39.53" height="77.27" filterUnits="userSpaceOnUse" color-interpolation-filters="sRGB"><feFlood flood-color="#fff" result="bg"/><feBlend in="SourceGraphic" in2="bg"/></filter><mask id="mask-17" x="275.57" y="511.4" width="39.53" height="77.27" maskUnits="userSpaceOnUse"><g class="cls-23"><path class="cls-24" d="M309.28,588.11c13.36,4.65,1.16-20.92-11-33.71s-22.67-43-22.67-43C276.73,548.59,295.91,583.46,309.28,588.11Z"/></g></mask><linearGradient id="linear-gradient-17" x1="275.57" y1="550.03" x2="315.1" y2="550.03" xlink:href="#linear-gradient-13"/><filter id="luminosity-noclip-18" x="404" y="557.62" width="192.5" height="111.85" filterUnits="userSpaceOnUse" color-interpolation-filters="sRGB"><feFlood flood-color="#fff" result="bg"/><feBlend in="SourceGraphic" in2="bg"/></filter><mask id="mask-18" x="404" y="557.62" width="192.5" height="111.85" maskUnits="userSpaceOnUse"><g class="cls-3"><path class="cls-4" d="M594,584c-13.37-8.14-68.58,25.57-68.58,25.57,5.23-23.24-7-42.65-7-42.65l-24.41,24-9.88-29.63c-20.92,70.31-64.5,100-64.5,100,33.12-31.38,40.88-108.87,23.24-103.44-15.11,4.65-7.55,47.07-12.2,69.74S404,669.47,404,669.47C464.49,653.82,481.88,591,481.88,591l5.81,15.7,25-22.67c3.68,7.73,1.16,48.82,1.16,48.82C564.4,592.18,607.41,592.18,594,584Z"/></g></mask><linearGradient id="linear-gradient-18" x1="404" y1="613.54" x2="596.5" y2="613.54" xlink:href="#linear-gradient-13"/><filter id="luminosity-noclip-19" x="436.55" y="643.9" width="131.39" height="75.55" filterUnits="userSpaceOnUse" color-interpolation-filters="sRGB"><feFlood flood-color="#fff" result="bg"/><feBlend in="SourceGraphic" in2="bg"/></filter><mask id="mask-19" x="436.55" y="643.9" width="131.39" height="75.55" maskUnits="userSpaceOnUse"><g class="cls-5"><path class="cls-6" d="M562.08,643.9C519.65,691,436.55,719.45,436.55,719.45,609.15,666.56,562.08,643.9,562.08,643.9Z"/></g></mask><linearGradient id="linear-gradient-19" x1="436.55" y1="681.67" x2="567.94" y2="681.67" xlink:href="#linear-gradient-13"/><filter id="luminosity-noclip-20" x="187.64" y="579.79" width="240.77" height="248.33" filterUnits="userSpaceOnUse" color-interpolation-filters="sRGB"><feFlood flood-color="#fff" result="bg"/><feBlend in="SourceGraphic" in2="bg"/></filter><mask id="mask-20" x="187.64" y="579.79" width="240.77" height="248.33" maskUnits="userSpaceOnUse"><g class="cls-7"><path class="cls-8" d="M187.82,579.79c-7.8,90,240.59,248.33,240.59,248.33C292.12,726.79,187.82,579.79,187.82,579.79Z"/></g></mask><linearGradient id="linear-gradient-20" x1="187.64" y1="703.96" x2="428.41" y2="703.96" xlink:href="#linear-gradient-13"/><filter id="luminosity-noclip-21" x="144.81" y="613.54" width="411.24" height="430.65" filterUnits="userSpaceOnUse" color-interpolation-filters="sRGB"><feFlood flood-color="#fff" result="bg"/><feBlend in="SourceGraphic" in2="bg"/></filter><mask id="mask-21" x="144.81" y="613.54" width="411.24" height="430.65" maskUnits="userSpaceOnUse"><g class="cls-9"><path class="cls-10" d="M144.81,613.54s32.55,177.78,382.78,425.73c0,0,51.92,15.5,15.5-8.52S206.8,782.91,144.81,613.54Z"/></g></mask><linearGradient id="linear-gradient-21" x1="144.81" y1="828.87" x2="556.05" y2="828.87" xlink:href="#linear-gradient-13"/><filter id="luminosity-noclip-22" x="328.5" y="166.81" width="77.1" height="48.39" filterUnits="userSpaceOnUse" color-interpolation-filters="sRGB"><feFlood flood-color="#fff" result="bg"/><feBlend in="SourceGraphic" in2="bg"/></filter><mask id="mask-22" x="328.5" y="166.81" width="77.1" height="48.39" maskUnits="userSpaceOnUse"><g class="cls-11"><path class="cls-12" d="M367.05,187.12l-4.28,2.2a4.92,4.92,0,0,0-2.57,5.31v.05a4.92,4.92,0,0,0,5,4,55.83,55.83,0,0,1,40.43,16.57s-3.88-17.05-21.7-22.47c0,0-21.31-33.32-55.4-24.41C328.5,168.33,353.68,171,367.05,187.12Z"/></g></mask><linearGradient id="linear-gradient-22" x1="328.5" y1="191.01" x2="405.6" y2="191.01" xlink:href="#linear-gradient-13"/><filter id="luminosity-noclip-23" x="285.05" y="402.43" width="32.58" height="9.01" filterUnits="userSpaceOnUse" color-interpolation-filters="sRGB"><feFlood flood-color="#fff" result="bg"/><feBlend in="SourceGraphic" in2="bg"/></filter><mask id="mask-23" x="285.05" y="402.43" width="32.58" height="9.01" maskUnits="userSpaceOnUse"><g class="cls-15"><path class="cls-16" d="M301.34,402.43s-11.39.68-16,6.65a1.49,1.49,0,0,0,1.34,2.36,75.94,75.94,0,0,1,10.14-.29,80,80,0,0,0,9,0,75.89,75.89,0,0,1,10.14.29,1.49,1.49,0,0,0,1.34-2.36C312.72,403.11,301.34,402.43,301.34,402.43Z"/></g></mask><linearGradient id="linear-gradient-23" x1="285.05" y1="406.94" x2="317.62" y2="406.94" xlink:href="#linear-gradient-13"/><filter id="luminosity-noclip-24" x="0" y="0" width="978.75" height="1298.85" filterUnits="userSpaceOnUse" color-interpolation-filters="sRGB"><feFlood flood-color="#fff" result="bg"/><feBlend in="SourceGraphic" in2="bg"/></filter><mask id="mask-24" x="0" y="0" width="978.75" height="1298.85" maskUnits="userSpaceOnUse"><g class="cls-17"><path class="cls-18" d="M978.47,460.68,903.6,279.81c10.92-6.06,13-14.46,13.07-19.63a4.54,4.54,0,0,0-3.77-4.64,4.39,4.39,0,0,0-4.82,3.27c-1.82,6.73-4.82,10.22-8.37,11.61L896.6,263l-3.31,8c-7.46-1.2-15.6-7.63-20.22-11.82a14.09,14.09,0,0,0-9.47-3.64H823.78c-15.13-57.87-14.72-76.29-37.38-105,0,0-15.69-35.45-44.17-36.62,0,0-6.24-3.65-15-8q.43-6.85,1-14c5.81-70.77,4.65-88.46,4.65-88.46-7.55-4.65-16.27-3.3-16.27-3.3s-8.72-1.35-16.27,3.3c0,0-1.16,17.69,4.65,88.46L701.18,95c-18.32-5.79-34-5.29-25.2,18.89,0,0-55.79,52.89,29.06,101.12A59.48,59.48,0,0,0,705,222l-.4,36.7a5.57,5.57,0,0,1-8.09,4.9l-8.06-4.09a36.42,36.42,0,0,0-16.51-4H569.72a14.11,14.11,0,0,0-9.47,3.64c-4.73,4.29-13.16,10.94-20.77,11.91l-3.37-8.1-3,7.26c-3.3-1.5-6.09-4.93-7.83-11.26a4.54,4.54,0,0,0-3.1-3.3,4.37,4.37,0,0,0-5.54,4.14c0,5.06,1.82,13.56,12.61,19.75l-75,181.14-.26.62v12.41h0s9.74,28.7,46.84,43.15a97.47,97.47,0,0,0,70.59,0c37.1-14.45,46.83-43.12,46.84-43.15h0V461.3l-.28-.62L545.33,285.17A101.43,101.43,0,0,0,559,286.88c36.69,2.28,88.41,23.32,125.13,21.94V557.29c-1.59-.24-3.14-.49-4.64-.76-30.22-5.42-130.18-5.42-130.18-5.42-46.49-44.56-130.18-26.35-130.18-26.35-.77-38.74-33.31-51.91-33.31-51.91,17.82-21.7,5.57-50.37,5.57-50.37,28.06-9.3,21.55-42.61,21.55-42.61C452.43,349.65,431.51,314,431.51,314V277.77a22.33,22.33,0,0,1,8.92-17.62c24.38-18.83-8.92-40.68-8.92-40.68,5.47-47-40.14-62-40.14-62-33.93-40.29-90-15.5-90-15.5s-56.1-24.79-90,15.5c0,0-45.6,15-40.14,62,0,0-33.3,21.85-8.92,40.68a22.33,22.33,0,0,1,8.92,17.62V314s-20.92,35.65,18.6,65.87c0,0-6.51,33.31,21.54,42.61,0,0-12.25,28.67,5.58,50.37,0,0-32.55,13.17-33.32,51.91,0,0-15.11,5.82-24,14.73,0,0-26.35-7.36-58.89,15.11s-209.22,25.95,0,379.29c124,216.19,464.91,260.35,483.51,365,0,0,83.68-69.74,20.92-155.75,0,0,5.81-62.76-12.78-82.52,0,0,7-58.11-23.25-105.77,0,0,41.84-41.84-12.79-134.82,0,0,27.9,11.62,52.31-5.82,0,0,35.88,42.39,75.54,26.11V1145.6a189.5,189.5,0,0,0,25.57,95.07h0l7,12,7-12h0a197.75,197.75,0,0,0,25.59-97.27V799.33c6.3-7.92,12.21-18.45,16.76-32.43a177.37,177.37,0,0,1-16.76,22.86v-20c13.06-20.36,24.54-46.8,25.64-68.73,0-2.64,0-5.32-.08-8.08,0,0,30.21-12.4,57-12.4s86-12.78,77.87-46.49c-5.48-22.71,7.5-44.9-3.71-111a97.31,97.31,0,0,0,26-6.17c37.09-14.46,46.81-43.12,46.82-43.15h0V461.3ZM596.53,427.09l13,33.19a25.59,25.59,0,0,1,1.77,9.36v4.07H461v-4.08a25.57,25.57,0,0,1,1.76-9.35l13-33.19,59.88-144.62c.42.15.83.31,1.27.45ZM391.37,353.33c3-10.46,5.36-20.06,7.22-28.88,6.82,1.41,12.59,2.28,17.31,2.81C410.76,358.36,391.37,353.33,391.37,353.33ZM174.1,266.07c-2.9-14.68-1.91-26.19,11.78-32.65,0,0-32.49-30.22,51.17-69,0,0,26.32-31.76,64.29-13.94,38-17.82,64.28,13.94,64.28,13.94,83.66,38.75,51.17,69,51.17,69,13.69,6.46,14.68,18,11.78,32.65A178.7,178.7,0,0,1,404,267.91c-2.15-33.44-16.48-40.11-16.48-40.11-32,1.16-50.17-33.51-50.17-33.51-13.56,14.72-36-15.11-36-15.11s-22.48,29.83-36,15.11c0,0-18.2,34.67-50.17,33.51,0,0-14.33,6.67-16.48,40.11A178.85,178.85,0,0,1,174.1,266.07Zm12.67,61.19c4.72-.53,10.49-1.4,17.32-2.81,1.85,8.82,4.23,18.42,7.21,28.88C211.3,353.33,191.91,358.36,186.77,327.26Zm26.62-83.19c45.33-1.16,59.86-36,59.86-36,18-2.32,28.09-20.92,28.09-20.92s10.07,18.6,28.08,20.92c0,0,14.53,34.87,59.86,36,0,0,1.18,9.12,1.77,23.54A186.45,186.45,0,0,1,363.32,264c-37.19-7.74-62-5-62-5s-24.8-2.71-62,5a186.45,186.45,0,0,1-27.73,3.59C212.21,253.19,213.39,244.07,213.39,244.07Zm-.06,78.27c2.63-.65,5.33-1.34,8.2-2.14,33.31-9.3,58.88-20.92,79.81-16.27.19-.05.4-.06.6-.11l2.51,57.45L287,364.94a3.95,3.95,0,0,0,1.09,7.79c29-1.27,37.81,5.87,30.5-8.75-7.55-15.11-6.78-50-6.78-50l13.55-9.71c15.92,2.92,34.22,9.89,55.8,15.91,2.86.8,5.56,1.49,8.19,2.14-5.75,52.92-26,115.72-88,130.36C239.32,438.06,219.08,375.26,213.33,322.34Zm13.6,221.4a9.12,9.12,0,0,1,.52-8.4c19.78-32.79,21.39-55.9,21.39-55.9,25-2.33,29.64-18,52.5-17.44s44.55-17.43,44.55-17.43a189.19,189.19,0,0,0,26.23,88,73,73,0,0,1,10.61,35.86l.35.11a4.4,4.4,0,0,1-.34.83,65,65,0,0,1-.74,10.5c-9.15,59.17-68.07,78-68.07,78-28.12-16.81-51.23-48.71-66.85-75.19h0l-.1-.19c-2.85-4.84-5.46-9.5-7.8-13.85l0-.05h0C233.33,557.7,229.17,548.77,226.93,543.74Zm351.42,487.78s5.81,18.6,0,33.71c0,0,14.53,34.29,8.13,64.51,0,0-381.23-238.85-483.51-471.89,0,0,64.16,194.2,288.4,348.1,0,0-118.24-65.09-180.07-132.5,0,0,52.38,102.28,180.07,183.64s177.37,102.15,203.25,146.45c0,0-67.41-55.79-177.83-110.42S119.24,916.46,44.86,643.9c0,0,55.79,343.46,425.4,524.77,0,0-457.95-154.58-446.32-524.77,0,0,4.61-35.63,32.54-46.3,0,0,12.34,187.52,169.67,344,0,0-136-158.46-150.49-353.53,0,0,20.34-1.53,26.73-8.32s45.33-26.71,51.14-11.23,28.86,143.33,185,271.18S500.47,973.41,578.35,1031.52Zm-10.41-144.9s-81.41-36.41-138-79.81c0,0,70.62,87.56,138,100,0,0,6.92,20.15-17.1,38,0,0,13.28,20.92,17.1,41.07,0,0-61.27-70.52-101.56-86S200.6,713.48,162.25,568.56c0,0,25.18-18.23,51.53-25.2,0,0,34.48,154.59,337.84,299.87C551.62,843.23,562.57,858,567.94,886.62Zm40.63-91c-101.12,16.27-130.18-17.44-130.18-17.44C525.27,779.69,582.61,741,582.61,741,571,767.3,526.82,782,526.82,782c25.57,4.65,73.61-10.85,73.61-10.85-13.17-69.74,17.82-138.7,17.82-138.7-24,22.47-30.22,58.89-30.22,58.89C543.87,728.55,474.9,736.3,474.9,736.3c35.65,9.3,91.44-4.65,91.44-4.65-140.25,59.67-210.28-30.22-210.28-30.22C433.26,651.07,416,579.79,416,579.79c4.65,64.32-67.41,110.79-67.41,110.79l-10.07-10.84c110-79.81,44.55-157.3,44.55-157.3C400.9,524.86,424.34,550,424.34,550c55.21-20.64,105.77,18.32,141.22,22.39s58.89,1.16,58.89,1.16c-17,15.5-34.87,74.39-34.87,74.39,45.13-88,79.81-70.44,79.81-70.44-103,115.53-34.09,250.59-34.09,250.59C616.7,820,608.57,795.58,608.57,795.58Zm75.54-27.08c-2.9-15.19-3.87-31-2.32-40,0,0-14.2,28.46,2.32,79.21v9c-4.51,3.4-14.29,6.35-17.82-27.77-2.6-25.19,5-72.3,17.82-114.84Zm0-121.56c-14.21,26.95-27.65,64.25-30.21,111.44,0,0-13.87-115.85,30.21-150.85Zm0-39.53c-8.43,5.64-82,60.57-27.89,227.69,0,0-36.42-13.18-31.77-115.65C627.22,658.37,654,615,684.11,591.87ZM874.34,286.88a101.63,101.63,0,0,0,13-1.58L856.41,360c-9.14-25.69-16.23-47.55-21.88-66.31C848.71,290.39,862.34,287.63,874.34,286.88ZM863.88,435.66c6.17,10.91,11.19,23.93,15.27,38h-57.7v-4.08a25.78,25.78,0,0,1,1.76-9.35l13-33.19L847.42,400C852.14,411.26,857.55,423.12,863.88,435.66ZM707.5,168.78v.16c-1,.21-1.8.45-2.61.7a41.45,41.45,0,0,0-4.79,2.12c-9.85,6.4,3.39,17.49,3.39,17.49l-1.94,6.2c-23.63-17-24-16.27-24.41-51.14-.17-15.28,10.68-20.72,22.92-22h0l1.23-.12h.17c5.18-.46,23.33-1.64,28.13,3.55l.2.22h0a6.1,6.1,0,0,1,1.48,5.48c-2,8.74-1,23.27-.29,31.11a8.65,8.65,0,0,0,5.54,7.26c57.1,21.79,67.91,46.12,74.79,85.72H788.18c-.78-5.67-1.3-9.1-1.3-9.1l-46.39-54.63c-1.5-8.35-4.49-13.83-8-17.42C731.73,173.5,722.67,164.5,707.5,168.78ZM808.87,575.13l-50.37.77-.11-2.21a13.14,13.14,0,0,0-9.17-11.82v-253c9.62.36,20.25-.8,31.39-2.78a469.76,469.76,0,0,1-1.19,54.84C774.78,415.51,793.37,541.81,808.87,575.13Zm-75.8,573-16.41,55.39V330.67l16.41-6.22Zm11.84-888.69-8.1,4.11a5.56,5.56,0,0,1-8.08-4.88l-.53-34.19a62.22,62.22,0,0,0,.08-9.49s-.11-1-.28-2.82l3.77-7.06,44.56,47.66s.13,1,.36,2.71H761.42A36.42,36.42,0,0,0,744.91,259.46Zm4.31,492V723.91c21.43-30.8,4-54.44,4-54.44C783.44,695.63,749.22,751.42,749.22,751.42ZM876.53,641.71c-43.9.66-97.43,30.14-125,8.58a23.27,23.27,0,0,1-2.31-2.09V599.09c1-2.44,2.06-4.59,2.92-6.32a9,9,0,0,1,7.57-4.94l57.58-3.14a7.47,7.47,0,0,0,6.68-4.87c12.47-35.88-26.08-85.05-29.05-240.25.24-10.76-.41-23.51-1.42-36.08,8.08-1.75,16.29-3.76,24.46-5.77a451.32,451.32,0,0,0,25.72,93l-28.95,69.92-.25.62v12.41h0s9.73,28.69,46.82,43.15a97.39,97.39,0,0,0,28.25,6.34c5.54,37.36,6.93,74.75,7.18,97.8A20.49,20.49,0,0,1,876.53,641.71Zm95.25-168H894.84c-6.35-23.39-15.09-50.63-27.08-82.61q-4.15-11.06-7.85-21.3l35.87-86.64,1.44-.49L957,427.09l13,33.19a25.59,25.59,0,0,1,1.77,9.36Z"/></g></mask><linearGradient id="linear-gradient-24" x1="0" y1="649.42" x2="978.75" y2="649.42" xlink:href="#linear-gradient-13"/></defs><g id="Capa_2" data-name="Capa 2"><g id="Layer_1" data-name="Layer 1"><g class="cls-25"><path class="cls-26" d="M236.38,198.64a4.92,4.92,0,0,0,5-4v-.05a4.92,4.92,0,0,0-2.57-5.31l-4.28-2.2c13.37-16.08,38.55-18.79,38.55-18.79-34.09-8.91-55.4,24.41-55.4,24.41-17.82,5.42-21.7,22.47-21.7,22.47A55.83,55.83,0,0,1,236.38,198.64Z"/></g><g class="cls-27"><path class="cls-28" d="M274,398.08a102,102,0,0,1,27.54-.14,21.46,21.46,0,0,0,6,0,102,102,0,0,1,27.55.14.74.74,0,0,0,.6-1.31c-4-3.21-14.3-9.81-31.14-9.54-16.84-.27-27.15,6.33-31.14,9.54A.74.74,0,0,0,274,398.08Z"/></g><g class="cls-29"><path class="cls-30" d="M247,582.46l.11.2c15.67,2.68,38.37,8.35,38.37,8.35-16.84-22.65-46.27-22.45-46.3-22.45l0,.05Z"/></g><g class="cls-31"><path class="cls-32" d="M329,588.11s23.24-8.72,37.77-10.58c11.49-1.47,15-6.21,15.93-8.14,0-.31,0-.63,0-.94C360.1,560.36,329,588.11,329,588.11Z"/></g><g class="cls-33"><path class="cls-34" d="M309.28,588.11c13.36,4.65,1.16-20.92-11-33.71s-22.67-43-22.67-43C276.73,548.59,295.91,583.46,309.28,588.11Z"/></g><g class="cls-35"><path class="cls-36" d="M594,584c-13.37-8.14-68.58,25.57-68.58,25.57,5.23-23.24-7-42.65-7-42.65l-24.41,24-9.88-29.63c-20.92,70.31-64.5,100-64.5,100,33.12-31.38,40.88-108.87,23.24-103.44-15.11,4.65-7.55,47.07-12.2,69.74S404,669.47,404,669.47C464.49,653.82,481.88,591,481.88,591l5.81,15.7,25-22.67c3.68,7.73,1.16,48.82,1.16,48.82C564.4,592.18,607.41,592.18,594,584Z"/></g><g class="cls-37"><path class="cls-38" d="M562.08,643.9C519.65,691,436.55,719.45,436.55,719.45,609.15,666.56,562.08,643.9,562.08,643.9Z"/></g><g class="cls-39"><path class="cls-40" d="M187.82,579.79c-7.8,90,240.59,248.33,240.59,248.33C292.12,726.79,187.82,579.79,187.82,579.79Z"/></g><g class="cls-41"><path class="cls-42" d="M144.81,613.54s32.55,177.78,382.78,425.73c0,0,51.92,15.5,15.5-8.52S206.8,782.91,144.81,613.54Z"/></g><g class="cls-43"><path class="cls-44" d="M367.05,187.12l-4.28,2.2a4.92,4.92,0,0,0-2.57,5.31v.05a4.92,4.92,0,0,0,5,4,55.83,55.83,0,0,1,40.43,16.57s-3.88-17.05-21.7-22.47c0,0-21.31-33.32-55.4-24.41C328.5,168.33,353.68,171,367.05,187.12Z"/></g><g class="cls-45"><path class="cls-46" d="M301.34,402.43s-11.39.68-16,6.65a1.49,1.49,0,0,0,1.34,2.36,75.94,75.94,0,0,1,10.14-.29,80,80,0,0,0,9,0,75.89,75.89,0,0,1,10.14.29,1.49,1.49,0,0,0,1.34-2.36C312.72,403.11,301.34,402.43,301.34,402.43Z"/></g><g class="cls-47"><path class="cls-48" d="M978.47,460.68,903.6,279.81c10.92-6.06,13-14.46,13.07-19.63a4.54,4.54,0,0,0-3.77-4.64,4.39,4.39,0,0,0-4.82,3.27c-1.82,6.73-4.82,10.22-8.37,11.61L896.6,263l-3.31,8c-7.46-1.2-15.6-7.63-20.22-11.82a14.09,14.09,0,0,0-9.47-3.64H823.78c-15.13-57.87-14.72-76.29-37.38-105,0,0-15.69-35.45-44.17-36.62,0,0-6.24-3.65-15-8q.43-6.85,1-14c5.81-70.77,4.65-88.46,4.65-88.46-7.55-4.65-16.27-3.3-16.27-3.3s-8.72-1.35-16.27,3.3c0,0-1.16,17.69,4.65,88.46L701.18,95c-18.32-5.79-34-5.29-25.2,18.89,0,0-55.79,52.89,29.06,101.12A59.48,59.48,0,0,0,705,222l-.4,36.7a5.57,5.57,0,0,1-8.09,4.9l-8.06-4.09a36.42,36.42,0,0,0-16.51-4H569.72a14.11,14.11,0,0,0-9.47,3.64c-4.73,4.29-13.16,10.94-20.77,11.91l-3.37-8.1-3,7.26c-3.3-1.5-6.09-4.93-7.83-11.26a4.54,4.54,0,0,0-3.1-3.3,4.37,4.37,0,0,0-5.54,4.14c0,5.06,1.82,13.56,12.61,19.75l-75,181.14-.26.62v12.41h0s9.74,28.7,46.84,43.15a97.47,97.47,0,0,0,70.59,0c37.1-14.45,46.83-43.12,46.84-43.15h0V461.3l-.28-.62L545.33,285.17A101.43,101.43,0,0,0,559,286.88c36.69,2.28,88.41,23.32,125.13,21.94V557.29c-1.59-.24-3.14-.49-4.64-.76-30.22-5.42-130.18-5.42-130.18-5.42-46.49-44.56-130.18-26.35-130.18-26.35-.77-38.74-33.31-51.91-33.31-51.91,17.82-21.7,5.57-50.37,5.57-50.37,28.06-9.3,21.55-42.61,21.55-42.61C452.43,349.65,431.51,314,431.51,314V277.77a22.33,22.33,0,0,1,8.92-17.62c24.38-18.83-8.92-40.68-8.92-40.68,5.47-47-40.14-62-40.14-62-33.93-40.29-90-15.5-90-15.5s-56.1-24.79-90,15.5c0,0-45.6,15-40.14,62,0,0-33.3,21.85-8.92,40.68a22.33,22.33,0,0,1,8.92,17.62V314s-20.92,35.65,18.6,65.87c0,0-6.51,33.31,21.54,42.61,0,0-12.25,28.67,5.58,50.37,0,0-32.55,13.17-33.32,51.91,0,0-15.11,5.82-24,14.73,0,0-26.35-7.36-58.89,15.11s-209.22,25.95,0,379.29c124,216.19,464.91,260.35,483.51,365,0,0,83.68-69.74,20.92-155.75,0,0,5.81-62.76-12.78-82.52,0,0,7-58.11-23.25-105.77,0,0,41.84-41.84-12.79-134.82,0,0,27.9,11.62,52.31-5.82,0,0,35.88,42.39,75.54,26.11V1145.6a189.5,189.5,0,0,0,25.57,95.07h0l7,12,7-12h0a197.75,197.75,0,0,0,25.59-97.27V799.33c6.3-7.92,12.21-18.45,16.76-32.43a177.37,177.37,0,0,1-16.76,22.86v-20c13.06-20.36,24.54-46.8,25.64-68.73,0-2.64,0-5.32-.08-8.08,0,0,30.21-12.4,57-12.4s86-12.78,77.87-46.49c-5.48-22.71,7.5-44.9-3.71-111a97.31,97.31,0,0,0,26-6.17c37.09-14.46,46.81-43.12,46.82-43.15h0V461.3ZM596.53,427.09l13,33.19a25.59,25.59,0,0,1,1.77,9.36v4.07H461v-4.08a25.57,25.57,0,0,1,1.76-9.35l13-33.19,59.88-144.62c.42.15.83.31,1.27.45ZM391.37,353.33c3-10.46,5.36-20.06,7.22-28.88,6.82,1.41,12.59,2.28,17.31,2.81C410.76,358.36,391.37,353.33,391.37,353.33ZM174.1,266.07c-2.9-14.68-1.91-26.19,11.78-32.65,0,0-32.49-30.22,51.17-69,0,0,26.32-31.76,64.29-13.94,38-17.82,64.28,13.94,64.28,13.94,83.66,38.75,51.17,69,51.17,69,13.69,6.46,14.68,18,11.78,32.65A178.7,178.7,0,0,1,404,267.91c-2.15-33.44-16.48-40.11-16.48-40.11-32,1.16-50.17-33.51-50.17-33.51-13.56,14.72-36-15.11-36-15.11s-22.48,29.83-36,15.11c0,0-18.2,34.67-50.17,33.51,0,0-14.33,6.67-16.48,40.11A178.85,178.85,0,0,1,174.1,266.07Zm12.67,61.19c4.72-.53,10.49-1.4,17.32-2.81,1.85,8.82,4.23,18.42,7.21,28.88C211.3,353.33,191.91,358.36,186.77,327.26Zm26.62-83.19c45.33-1.16,59.86-36,59.86-36,18-2.32,28.09-20.92,28.09-20.92s10.07,18.6,28.08,20.92c0,0,14.53,34.87,59.86,36,0,0,1.18,9.12,1.77,23.54A186.45,186.45,0,0,1,363.32,264c-37.19-7.74-62-5-62-5s-24.8-2.71-62,5a186.45,186.45,0,0,1-27.73,3.59C212.21,253.19,213.39,244.07,213.39,244.07Zm-.06,78.27c2.63-.65,5.33-1.34,8.2-2.14,33.31-9.3,58.88-20.92,79.81-16.27.19-.05.4-.06.6-.11l2.51,57.45L287,364.94a3.95,3.95,0,0,0,1.09,7.79c29-1.27,37.81,5.87,30.5-8.75-7.55-15.11-6.78-50-6.78-50l13.55-9.71c15.92,2.92,34.22,9.89,55.8,15.91,2.86.8,5.56,1.49,8.19,2.14-5.75,52.92-26,115.72-88,130.36C239.32,438.06,219.08,375.26,213.33,322.34Zm13.6,221.4a9.12,9.12,0,0,1,.52-8.4c19.78-32.79,21.39-55.9,21.39-55.9,25-2.33,29.64-18,52.5-17.44s44.55-17.43,44.55-17.43a189.19,189.19,0,0,0,26.23,88,73,73,0,0,1,10.61,35.86l.35.11a4.4,4.4,0,0,1-.34.83,65,65,0,0,1-.74,10.5c-9.15,59.17-68.07,78-68.07,78-28.12-16.81-51.23-48.71-66.85-75.19h0l-.1-.19c-2.85-4.84-5.46-9.5-7.8-13.85l0-.05h0C233.33,557.7,229.17,548.77,226.93,543.74Zm351.42,487.78s5.81,18.6,0,33.71c0,0,14.53,34.29,8.13,64.51,0,0-381.23-238.85-483.51-471.89,0,0,64.16,194.2,288.4,348.1,0,0-118.24-65.09-180.07-132.5,0,0,52.38,102.28,180.07,183.64s177.37,102.15,203.25,146.45c0,0-67.41-55.79-177.83-110.42S119.24,916.46,44.86,643.9c0,0,55.79,343.46,425.4,524.77,0,0-457.95-154.58-446.32-524.77,0,0,4.61-35.63,32.54-46.3,0,0,12.34,187.52,169.67,344,0,0-136-158.46-150.49-353.53,0,0,20.34-1.53,26.73-8.32s45.33-26.71,51.14-11.23,28.86,143.33,185,271.18S500.47,973.41,578.35,1031.52Zm-10.41-144.9s-81.41-36.41-138-79.81c0,0,70.62,87.56,138,100,0,0,6.92,20.15-17.1,38,0,0,13.28,20.92,17.1,41.07,0,0-61.27-70.52-101.56-86S200.6,713.48,162.25,568.56c0,0,25.18-18.23,51.53-25.2,0,0,34.48,154.59,337.84,299.87C551.62,843.23,562.57,858,567.94,886.62Zm40.63-91c-101.12,16.27-130.18-17.44-130.18-17.44C525.27,779.69,582.61,741,582.61,741,571,767.3,526.82,782,526.82,782c25.57,4.65,73.61-10.85,73.61-10.85-13.17-69.74,17.82-138.7,17.82-138.7-24,22.47-30.22,58.89-30.22,58.89C543.87,728.55,474.9,736.3,474.9,736.3c35.65,9.3,91.44-4.65,91.44-4.65-140.25,59.67-210.28-30.22-210.28-30.22C433.26,651.07,416,579.79,416,579.79c4.65,64.32-67.41,110.79-67.41,110.79l-10.07-10.84c110-79.81,44.55-157.3,44.55-157.3C400.9,524.86,424.34,550,424.34,550c55.21-20.64,105.77,18.32,141.22,22.39s58.89,1.16,58.89,1.16c-17,15.5-34.87,74.39-34.87,74.39,45.13-88,79.81-70.44,79.81-70.44-103,115.53-34.09,250.59-34.09,250.59C616.7,820,608.57,795.58,608.57,795.58Zm75.54-27.08c-2.9-15.19-3.87-31-2.32-40,0,0-14.2,28.46,2.32,79.21v9c-4.51,3.4-14.29,6.35-17.82-27.77-2.6-25.19,5-72.3,17.82-114.84Zm0-121.56c-14.21,26.95-27.65,64.25-30.21,111.44,0,0-13.87-115.85,30.21-150.85Zm0-39.53c-8.43,5.64-82,60.57-27.89,227.69,0,0-36.42-13.18-31.77-115.65C627.22,658.37,654,615,684.11,591.87ZM874.34,286.88a101.63,101.63,0,0,0,13-1.58L856.41,360c-9.14-25.69-16.23-47.55-21.88-66.31C848.71,290.39,862.34,287.63,874.34,286.88ZM863.88,435.66c6.17,10.91,11.19,23.93,15.27,38h-57.7v-4.08a25.78,25.78,0,0,1,1.76-9.35l13-33.19L847.42,400C852.14,411.26,857.55,423.12,863.88,435.66ZM707.5,168.78v.16c-1,.21-1.8.45-2.61.7a41.45,41.45,0,0,0-4.79,2.12c-9.85,6.4,3.39,17.49,3.39,17.49l-1.94,6.2c-23.63-17-24-16.27-24.41-51.14-.17-15.28,10.68-20.72,22.92-22h0l1.23-.12h.17c5.18-.46,23.33-1.64,28.13,3.55l.2.22h0a6.1,6.1,0,0,1,1.48,5.48c-2,8.74-1,23.27-.29,31.11a8.65,8.65,0,0,0,5.54,7.26c57.1,21.79,67.91,46.12,74.79,85.72H788.18c-.78-5.67-1.3-9.1-1.3-9.1l-46.39-54.63c-1.5-8.35-4.49-13.83-8-17.42C731.73,173.5,722.67,164.5,707.5,168.78ZM808.87,575.13l-50.37.77-.11-2.21a13.14,13.14,0,0,0-9.17-11.82v-253c9.62.36,20.25-.8,31.39-2.78a469.76,469.76,0,0,1-1.19,54.84C774.78,415.51,793.37,541.81,808.87,575.13Zm-75.8,573-16.41,55.39V330.67l16.41-6.22Zm11.84-888.69-8.1,4.11a5.56,5.56,0,0,1-8.08-4.88l-.53-34.19a62.22,62.22,0,0,0,.08-9.49s-.11-1-.28-2.82l3.77-7.06,44.56,47.66s.13,1,.36,2.71H761.42A36.42,36.42,0,0,0,744.91,259.46Zm4.31,492V723.91c21.43-30.8,4-54.44,4-54.44C783.44,695.63,749.22,751.42,749.22,751.42ZM876.53,641.71c-43.9.66-97.43,30.14-125,8.58a23.27,23.27,0,0,1-2.31-2.09V599.09c1-2.44,2.06-4.59,2.92-6.32a9,9,0,0,1,7.57-4.94l57.58-3.14a7.47,7.47,0,0,0,6.68-4.87c12.47-35.88-26.08-85.05-29.05-240.25.24-10.76-.41-23.51-1.42-36.08,8.08-1.75,16.29-3.76,24.46-5.77a451.32,451.32,0,0,0,25.72,93l-28.95,69.92-.25.62v12.41h0s9.73,28.69,46.82,43.15a97.39,97.39,0,0,0,28.25,6.34c5.54,37.36,6.93,74.75,7.18,97.8A20.49,20.49,0,0,1,876.53,641.71Zm95.25-168H894.84c-6.35-23.39-15.09-50.63-27.08-82.61q-4.15-11.06-7.85-21.3l35.87-86.64,1.44-.49L957,427.09l13,33.19a25.59,25.59,0,0,1,1.77,9.36Z"/></g><rect class="cls-49" x="2717.24" y="1205.24" width="483.74" height="18.92"/><rect class="cls-49" x="863.53" y="1205.24" width="513.32" height="18.92"/><text class="cls-50" transform="translate(830.93 1078.81) scale(0.95 1)">ESTU<tspan class="cls-51" x="1001.37" y="0">DI</tspan><tspan x="1495.07" y="0" xml:space="preserve">O  FL</tspan></text><text class="cls-52" transform="translate(1444.86 1246.81)">SE<tspan class="cls-53" x="121.94" y="0">R</tspan><tspan x="194.1" y="0">V</tspan><tspan class="cls-54" x="265.72" y="0">I</tspan><tspan x="311.67" y="0">C</tspan><tspan class="cls-54" x="390.2" y="0">I</tspan><tspan x="436.16" y="0">OS JURI</tspan><tspan class="cls-54" x="866.13" y="0">DI</tspan><tspan x="1002.08" y="0">COS</tspan></text></g></g></svg>