<svg xmlns="http://www.w3.org/2000/svg" viewBox="0 0 494.55 277.35"><defs><style>.cls-1{fill:#333;}.cls-1,.cls-2,.cls-3{fill-rule:evenodd;}.cls-2,.cls-4{fill:#c93;}.cls-3{fill:#fff;}.cls-4{font-size:35.78px;font-family:Garamond-Bold, Garamond;font-weight:700;}.cls-5{font-size:27.83px;}</style></defs><g id="Capa_2" data-name="Capa 2"><g id="Layer_1" data-name="Layer 1"><path class="cls-1" d="M108.16,268.17c43.77-.54,87.57-1,131.35-1s87.6.4,131.4.9v.26c-43.8.51-87.63.91-131.4.89s-87.58-.45-131.35-1v-.06Z"/><path class="cls-2" d="M397.65,101c0-25.31,0-30,.38-35.35.4-5.87,1.79-8.25,6.49-9a37.82,37.82,0,0,1,6.7-.58c2.13,0,3.12-.59,3.12-1.77s-1.17-1.6-3.71-1.6c-6.7,0-20.83.4-25,.4-4.73,0-15.73-.4-23.8-.4-2.53,0-3.71.4-3.71,1.6s1,1.77,2.94,1.77a22.68,22.68,0,0,1,5.69.58c5.5,1.55,7.07,3.31,7.47,9,.22,5.31.22,10,.22,35.35v29.48c0,15.33,0,28.49-.81,35.57-.58,4.91-1.57,8.06-5.09,8.86a26.42,26.42,0,0,1-6.12.59c-2.14,0-2.72,1-2.72,1.76,0,1.18,1.17,1.76,3.31,1.76,3.55,0,7.87-.21,12-.4,4.12,0,7.85-.18,9.83-.18,7.05,0,14.34.18,23,.37,8.65.4,18.68.59,31.07.59,9,0,9.83-.78,11-4.49,1.34-4.94,2.51-17.3,2.51-19.28s-.37-3.73-1.55-3.73c-1.39,0-1.76,1-2,2.56-.38,3.15-2.14,7.85-4.33,10-4.32,4.51-11,4.73-20.24,4.73-13.34,0-20-1-22.95-3.56-3.74-3.12-3.74-13.74-3.74-35.16V101Z"/><path class="cls-2" d="M135.59,53a1.57,1.57,0,0,1,2.1.26,1.71,1.71,0,0,1,.52,1.83l-.47,2.69c-.56,3.17-1.12,6.32-1.74,9.46s-1.25,6.31-1.93,9.57a1.7,1.7,0,0,1-2,1.15,1.64,1.64,0,0,1-1.52-1.66c0-3.52-.67-7.56-3.69-9.79s-7.08-2.85-10.77-2.85a50,50,0,0,0-5.74.33l-4.94.55-.76.1c-1.7.24-3.42.45-5.14.67-1.43.18-2.88.29-4.33.33v42.5h29.2a5.89,5.89,0,0,0,3.08-1.29,27.78,27.78,0,0,0,3.25-2.69,1.77,1.77,0,0,1,3,1.33c-.23,4.1-.61,8.19-1.17,12.25s-1.27,8-2.21,12a1.78,1.78,0,0,1-3.46-.54c.07-3.33-.45-7.31-3.35-9.42s-6.91-2.69-10.44-2.69H95.22V161a14.38,14.38,0,0,0,1.09,5.46,17.22,17.22,0,0,0,3,4.92,14.59,14.59,0,0,0,4.38,3.46A10,10,0,0,0,108.8,176l1.16-.07v3.59h-2.59c-1.58,0-3.15-.06-4.73-.17s-3.13-.28-4.67-.5a87.16,87.16,0,0,0-9.14-.49c-1.43,0-2.88,0-4.31.16s-2.87.28-4.36.5a95.46,95.46,0,0,1-9.86.5H68.14a1.64,1.64,0,0,1-1.66-1.53A1.67,1.67,0,0,1,67.62,176l.09,0h.09a24.91,24.91,0,0,0,6.33-1.65A6.07,6.07,0,0,0,76.94,172,8.91,8.91,0,0,0,78,168c.15-2.17.17-4.37.17-6.56V68a14.85,14.85,0,0,0-.44-4,5,5,0,0,0-1.14-2.1,4.17,4.17,0,0,0-1.72-1.06,25,25,0,0,0-2.64-.73c-1-.25-2-.54-3-.84a22.11,22.11,0,0,1-4.09-1.79,1.67,1.67,0,0,1-.74-2.07A1.75,1.75,0,0,1,66,54.29q15,.49,30.08.5h11.75c.88,0,1.75,0,2.62.08s1.9.08,2.84.08c1.14,0,2.3,0,3.44.09s2.34.09,3.51.09a73.67,73.67,0,0,0,8.4-.49A26.64,26.64,0,0,0,135.59,53Z"/><path class="cls-3" d="M172.45,24.68,0,28.86V30l174.12,3.06A27.49,27.49,0,0,1,172.45,24.68Z"/><path class="cls-3" d="M321,24.65l173.57,4.21V30L319.43,33.11v-.33A27.78,27.78,0,0,0,321,24.65Z"/><path class="cls-3" d="M173.82,198.94,0,203.15v1.16l172.42,3v-.2A25.48,25.48,0,0,1,173.82,198.94Z"/><path class="cls-3" d="M319.59,198.91l175,4.24v1.16L321,207.37v-.2A25.52,25.52,0,0,0,319.59,198.91Z"/><path class="cls-3" d="M185.11,196.16c20.52.87,41.07,1.44,61.59,1.45s41.07-.54,61.61-1.43c3.32-.14,6,4.77,6,11v3.06c-22.53,1.21-45.09,2.06-67.62,2.06s-45.08-.87-67.6-2.09v-3c0-6.22,2.7-11.13,6-11ZM169.21,15.05c25.82-1.8,51.67-2.94,77.49-2.93s51.68,1.12,77.52,2.93c3.32.24,6-3.62,6-8.67V3.86C302.39,1.58,274.54,0,246.7,0S191,1.58,163.21,3.86V6.38c0,5.05,2.69,8.91,6,8.67Zm15.9,20.29C205.63,34.49,226.18,34,246.7,34s41.07.57,61.61,1.39c3.32.14,6-5.1,6-11.72V20.38c-22.53-1.22-45.09-2.06-67.62-2.06s-45.08.82-67.6,2.06v3.23c0,6.65,2.7,11.87,6,11.73Zm10.17,156.92q10,.35,20.05.58V75.33c0-7.3,4.78-13.27,10.68-13.33s10.68,5.85,10.68,13.17v118q10,.09,20.05,0v-118h0c0-7.32,4.78-13.21,10.67-13.17s10.68,6,10.68,13.33h0v117.5c6.68-.13,13.35-.34,20-.57V40.43c-6.68-.23-13.35-.44-20-.57h0q-10.68-.21-21.35-.27h0q-10.05-.08-20.05,0h0q-10.69.06-21.36.28h0q-10,.21-20.05.57V192.26Zm-26.07,22.89c25.82,1.81,51.67,2.95,77.49,3s51.68-1.14,77.52-2.94c3.32-.23,6,3.32,6,8.08v2.32c-27.84,2.29-55.69,3.86-83.53,3.85s-55.67-1.59-83.49-3.85v-2.32C163.21,218.5,165.89,214.93,169.21,215.15Z"/><text class="cls-4" transform="translate(101.25 264.03)">E<tspan class="cls-5" x="25.35" y="0">STUDIO</tspan><tspan x="134.61" y="0" xml:space="preserve"> J</tspan><tspan class="cls-5" x="156.97" y="0">URIDICO</tspan></text></g></g></svg>